<svg class="piano" width="1920" height="1080" viewBox="0 0 1920 1080" fill="none" xmlns="http://www.w3.org/2000/svg">
<g id="piano-port">
<g id="key-press">
<path id="key-a" d="M1657.78 1075.55V841.011H1647.65V588.136H1525.97V841.011H1411.28V1075.55H1657.78Z" fill="#C4C4C4"/>
<path id="key-b" d="M1912.63 1075.55V588.136H1802.52V841.011H1666.14V1075.55H1912.63Z" fill="#C4C4C4"/>
<path id="key-c" d="M9.63214 1075.55H286.602V841.011H213.344V588.136H9.63214V1075.55Z" fill="#C4C4C4"/>
<path id="key-d" d="M571.893 1075.55V841.011H523.073V588.136H368.209V841.011H294.937V1075.55H571.893Z" fill="#C4C4C4"/>
<path id="key-e" d="M857.198 1075.55V588.136H677.938V841.011H580.242V1075.55H857.198Z" fill="#C4C4C4"/>
<path id="key-f" d="M865.547 1075.55H1142.49V841.011H1068.78V588.136H865.547V1075.55Z" fill="#C4C4C4"/>
<path id="key-g" d="M1402.94 1075.55V841.011H1371.09V588.136H1223.64V841.011H1150.84V1075.55H1402.94Z" fill="#C4C4C4"/>
</g>
<g id="piano-outline">
<path id="Vector" d="M1498.02 290.788C1172.57 259.303 1107.45 208.138 703.893 86.1695C300.305 -35.8357 0.869873 7.45887 0.869873 7.45887V585.905H1.28384V583.681H213.344V588.128V841.011H286.602H294.937H368.209V588.136V583.689H523.087V588.136V841.019H571.907H580.242H677.938V588.136V583.689H857.198H865.533H1068.78V588.136V841.019H1142.49H1150.84H1223.63V588.136V583.689H1371.09V588.136V841.019H1402.94H1411.28H1525.97V588.136V583.689H1647.65V588.136V841.019H1657.77H1666.13H1802.5V588.136V583.689H1920.99V585.912H1921.13V306.508C1921.14 306.508 1823.5 322.257 1498.02 290.788Z" fill="#1C1C1C"/>
<path id="Vector_2" d="M1647.65 583.681H1525.97V588.128H1647.65V583.681Z" fill="#1C1C1C"/>
<path id="Vector_3" d="M1802.52 583.681V588.136H1912.63V1075.55H1666.14V841.011H1657.78V1075.55H1411.28V841.011H1402.94V1075.55H1150.84V841.011H1142.49V1075.55H865.546V588.136H1068.78V583.681H865.546H857.198H677.937V588.136H857.198V1075.55H580.242V841.011H571.893V1075.55H294.937V841.011H286.602V1075.55H9.63211V588.136H213.344V583.681H1.28381V585.905V1077.78V1080H286.602H294.937H571.893H580.242H857.198H865.546H1142.49H1150.84H1402.94H1411.28H1657.78H1666.14H1921.01V585.905V583.681H1802.52Z" fill="#1C1C1C"/>
<path id="Vector_4" d="M523.087 583.681H368.209V588.128H523.087V583.681Z" fill="#1C1C1C"/>
<path id="Vector_5" d="M1371.11 583.681H1223.64V588.128H1371.11V583.681Z" fill="#1C1C1C"/>
</g>
<g id="piano-links">
<path id="github" d="M148 875.129C100.49 875.129 62 913.651 62 961.129C62 999.146 86.639 1031.37 120.786 1042.74C125.103 1043.55 126.661 1040.89 126.661 1038.59C126.661 1036.55 126.613 1031.14 126.581 1023.97C102.646 1029.15 97.604 1012.41 97.604 1012.41C93.6856 1002.5 88.0311 999.839 88.0311 999.839C80.2481 994.523 88.6493 994.636 88.6493 994.636C97.2708 995.222 101.807 1003.48 101.807 1003.48C109.477 1016.64 121.931 1012.83 126.86 1010.62C127.613 1005.07 129.854 1001.26 132.294 999.141C113.202 996.985 93.1266 989.595 93.1266 956.64C93.1266 947.229 96.4591 939.564 101.968 933.544C101.017 931.389 98.1039 922.627 102.726 910.781C102.726 910.781 109.924 908.486 126.376 919.601C133.262 917.693 140.572 916.742 147.876 916.693C155.186 916.742 162.491 917.699 169.376 919.601C185.732 908.486 192.924 910.781 192.924 910.781C197.541 922.627 194.628 931.383 193.79 933.544C199.245 939.564 202.578 947.234 202.578 956.64C202.578 989.67 182.475 996.953 163.362 999.055C166.35 1001.63 169.151 1006.92 169.151 1014.96C169.151 1026.46 169.043 1035.73 169.043 1038.53C169.043 1040.76 170.548 1043.45 174.977 1042.59C209.377 1031.34 233.989 999.087 233.989 961.123C233.989 913.646 195.499 875.123 147.989 875.123L148 875.129Z" fill="black"/>
<g id="linkedin">
<path id="Vector_6" fill-rule="evenodd" clip-rule="evenodd" d="M440.145 952.249V951.997C440.093 952.082 440.022 952.166 439.978 952.249H440.145Z" fill="black"/>
<path id="Vector_7" fill-rule="evenodd" clip-rule="evenodd" d="M347 875V1047H519V875H347ZM400.498 1017.89H374.98V941.118H400.498V1017.89ZM387.739 930.64H387.57C379.01 930.64 373.462 924.742 373.462 917.371C373.462 909.837 379.172 904.107 387.906 904.107C396.642 904.107 402.01 909.837 402.177 917.371C402.177 924.742 396.642 930.64 387.739 930.64ZM492.538 1017.89H467.013V976.818C467.013 966.502 463.325 959.46 454.086 959.46C447.031 959.46 442.838 964.201 440.991 968.794C440.32 970.435 440.145 972.715 440.145 975.016V1017.89H414.614C414.614 1017.89 414.956 948.321 414.614 941.119H440.145V951.998C443.537 946.778 449.59 939.316 463.15 939.316C479.948 939.316 492.538 950.286 492.538 973.867V1017.89Z" fill="black"/>
</g>
<g id="vpet">
<path id="Vector_8" d="M703.851 965.447C703.851 970.016 709.755 973.727 717.04 973.727C724.323 973.727 730.229 970.016 730.229 965.447C730.229 960.874 727.706 956.325 717.04 956.325C706.656 956.328 703.851 960.874 703.851 965.447Z" fill="black"/>
<path id="Vector_9" d="M705.183 933.004C707.12 933.004 708.691 935.202 708.691 937.914C708.691 940.626 707.12 942.824 705.183 942.824C703.244 942.824 701.673 940.626 701.673 937.914C701.674 935.202 703.244 933.004 705.183 933.004Z" fill="black"/>
<path id="Vector_10" d="M667.435 892.483C649.477 913.812 632.637 939.066 667.435 940.75C702.235 942.441 703.637 874.556 703.637 874.556C703.637 874.556 685.396 871.159 667.435 892.483Z" fill="black"/>
<path id="Vector_11" d="M763.974 892.483C746.012 871.159 727.772 874.556 727.772 874.556C727.772 874.556 729.178 942.441 763.974 940.75C798.771 939.069 781.934 913.812 763.974 892.483Z" fill="black"/>
<path id="Vector_12" d="M741.523 971.733C756.1 971.733 768.105 960.722 769.682 946.562C768.045 946.777 766.31 946.943 764.455 947.034C763.96 947.059 763.467 947.072 762.987 947.072C725.72 947.072 723.9 879.59 723.841 876.718L723.816 875.445C721.139 874.737 718.415 874.355 715.702 874.355C713.181 874.355 710.65 874.686 708.155 875.299L708.126 876.718C708.089 878.347 707.485 900.781 700.164 919.883C702.478 919.873 704.717 920.428 706.697 921.654C713.678 925.981 714.827 936.768 709.26 945.754C703.695 954.737 693.521 958.512 686.54 954.185C683.221 952.125 681.235 948.598 680.65 944.508C677.206 946.141 673.342 947.075 668.984 947.075C668.98 947.075 668.98 947.075 668.98 947.075C668.497 947.075 668.003 947.062 667.51 947.037C667.276 947.027 667.057 947.007 666.825 946.99C668.594 960.946 680.501 971.734 694.933 971.734C697.227 971.734 699.45 971.455 701.583 970.94C700.65 969.434 700.122 967.761 700.122 965.986C700.122 962.106 701.777 953.075 717.101 953.075C731.873 953.075 734.076 961.159 734.076 965.986C734.076 967.556 733.66 969.041 732.921 970.407C735.643 971.263 738.528 971.733 741.523 971.733ZM728.896 942.831C726.959 942.831 725.387 940.631 725.387 937.914C725.387 935.205 726.959 933.005 728.896 933.005C730.832 933.005 732.404 935.205 732.404 937.914C732.4 940.631 730.83 942.831 728.896 942.831Z" fill="black"/>
<path id="Vector_13" d="M796.092 981.819C788.959 978.886 778.013 974.806 765.127 971.37C758.823 976.503 750.807 979.58 742.108 979.58C738.398 979.58 734.725 979.015 731.189 977.905C727.528 980.206 722.821 981.573 717.621 981.573C712.789 981.573 708.394 980.378 704.858 978.366L704.079 978.555C701.275 979.232 698.396 979.578 695.521 979.578C686.908 979.578 678.928 976.519 672.629 971.422C659.778 974.838 648.962 978.876 641.899 981.794C636.93 983.847 633 990.099 633 995.476V1021.44C633 1026.82 637.284 1030.38 642.593 1029.52C658.077 1027 689.8 1022.52 719 1022.52C748.201 1022.52 779.923 1027 795.408 1029.52C800.714 1030.38 805 1026.82 805 1021.44V995.476C805 990.106 801.064 983.867 796.092 981.819Z" fill="black"/>
</g>
<path id="youtube" d="M993.809 939.857L1021.57 959L993.809 978.143V939.857V939.857ZM1090 873V1045H918V873H1090ZM1052.85 944.938C1052.85 933.329 1043.44 923.919 1031.83 923.919H976.172C964.563 923.919 955.153 933.329 955.153 944.938V973.062C955.153 984.671 964.563 994.081 976.172 994.081H1031.83C1043.44 994.081 1052.85 984.671 1052.85 973.062V944.938Z" fill="black"/>
<g id="email">
<path id="XMLID_350_" d="M1793.62 967.305C1792.25 968.314 1790.62 968.818 1789 968.818C1787.38 968.818 1785.75 968.314 1784.38 967.305L1718.64 919.095L1703 907.629L1703 1018.33C1703 1022.65 1706.5 1026.15 1710.82 1026.15L1867.18 1026.15C1871.5 1026.15 1875 1022.65 1875 1018.33V907.629L1859.36 919.095L1793.62 967.305Z" fill="black"/>
<path id="XMLID_351_" d="M1789 951.305L1864.62 895.849L1713.38 895.848L1789 951.305Z" fill="black"/>
</g>
<g id="data">
<path id="Vector_14" d="M1229.79 977.56H1245.35C1248.31 977.56 1250.7 975.162 1250.7 972.203V938.283C1250.7 935.324 1248.31 932.926 1245.35 932.926H1229.79C1226.83 932.926 1224.43 935.324 1224.43 938.283V972.203C1224.43 975.162 1226.83 977.56 1229.79 977.56Z" fill="black"/>
<path id="Vector_15" d="M1269.22 977.56H1284.78C1287.74 977.56 1290.13 975.162 1290.13 972.203V922.468C1290.13 919.509 1287.74 917.111 1284.78 917.111H1269.22C1266.26 917.111 1263.86 919.509 1263.86 922.468V972.204C1263.86 975.162 1266.26 977.56 1269.22 977.56Z" fill="black"/>
<path id="Vector_16" d="M1308.65 977.56H1324.21C1327.17 977.56 1329.57 975.162 1329.57 972.203V961.378C1329.57 958.419 1327.17 956.021 1324.21 956.021H1308.65C1305.69 956.021 1303.3 958.419 1303.3 961.378V972.203C1303.3 975.162 1305.69 977.56 1308.65 977.56Z" fill="black"/>
<path id="Vector_17" d="M1354.92 887.84H1285.46V883.459C1285.46 878.787 1281.67 875 1277 875C1272.33 875 1268.54 878.787 1268.54 883.459V887.84H1199.08C1196.12 887.84 1193.73 890.238 1193.73 893.197V1003.16C1193.73 1006.12 1196.12 1008.52 1199.08 1008.52H1268.54V1020.2L1245.79 1030.88C1241.56 1032.87 1239.74 1037.9 1241.72 1042.13C1243.7 1046.36 1248.74 1048.18 1252.97 1046.2L1268.9 1038.72C1269.95 1042.2 1273.18 1044.74 1277 1044.74C1280.82 1044.74 1284.05 1042.2 1285.1 1038.72L1301.03 1046.2C1305.26 1048.18 1310.3 1046.36 1312.28 1042.13C1314.26 1037.9 1312.44 1032.87 1308.21 1030.88L1285.46 1020.21V1008.52H1354.92C1357.88 1008.52 1360.27 1006.12 1360.27 1003.16V893.198C1360.27 890.238 1357.87 887.84 1354.92 887.84ZM1343.36 991.603H1210.64V904.758H1343.36V991.603Z" fill="black"/>
</g>
<g id="resume">
<path id="resume-vector" d="M1560.55 875H1467.63V1047H1602.37V916.813L1560.55 875ZM1547.9 963.867C1547.9 965.452 1546.62 966.733 1545.03 966.733H1516.37C1514.78 966.733 1513.5 965.452 1513.5 963.867C1513.5 962.281 1514.78 961 1516.37 961H1545.03C1546.62 961 1547.9 962.281 1547.9 963.867ZM1495.62 942.306L1496.54 940.182C1497.37 938.25 1498.74 936.722 1500.5 935.765L1506.81 932.649C1504.04 930.866 1502.04 928.182 1500.84 924.642C1498.88 923.447 1497.65 921.322 1497.65 918.955V917.043C1497.65 915.128 1498.48 913.336 1499.88 912.083C1500.15 910.326 1500.61 908.675 1501.23 907.155C1501.52 906.447 1501.77 905.917 1501.96 905.487C1502.1 905.2 1502.26 904.845 1502.29 904.745C1502.29 904.653 1502.28 904.306 1502.04 903.102C1501.85 902.165 1501.73 901.305 1501.64 900.568C1501.54 899.645 1501.83 898.719 1502.44 898.031C1503.73 896.597 1506.23 896.663 1507.43 898.191C1507.65 898.469 1508.09 898.922 1508.96 899.507C1510.43 900.499 1512.42 900.946 1514.51 900.763C1514.93 900.728 1515.36 900.711 1515.8 900.711C1526.97 900.711 1530.66 906.596 1531.69 912.037C1533.12 913.293 1533.96 915.099 1533.96 917.04V918.952C1533.96 921.32 1532.73 923.444 1530.77 924.639C1529.57 928.194 1527.56 930.883 1524.76 932.669L1530.84 935.773C1532.66 936.682 1534.1 938.204 1534.99 940.162L1535.98 942.318L1534.05 943.691C1528.67 947.515 1522.36 949.533 1515.8 949.533C1509.21 949.533 1502.88 947.501 1497.5 943.651L1495.62 942.306ZM1504.9 963.867C1504.9 964.612 1504.58 965.357 1504.07 965.902C1503.52 966.418 1502.81 966.733 1502.03 966.733C1501.26 966.733 1500.51 966.418 1500 965.873C1499.48 965.354 1499.17 964.612 1499.17 963.867C1499.17 963.118 1499.48 962.373 1500 961.831C1501.03 960.799 1503.01 960.771 1504.07 961.831C1504.58 962.373 1504.9 963.118 1504.9 963.867ZM1499.17 978.2C1499.17 976.615 1500.45 975.333 1502.03 975.333H1550.77C1552.35 975.333 1553.63 976.615 1553.63 978.2C1553.63 979.785 1552.35 981.067 1550.77 981.067H1502.03C1500.45 981.067 1499.17 979.785 1499.17 978.2ZM1514.03 1011.93C1513.94 1014.56 1511.04 1015.55 1509.14 1013.96C1506.46 1011.71 1503.78 1009.46 1501.1 1007.22C1498.26 1004.84 1502.34 1000.8 1505.15 1003.16C1506.34 1004.15 1507.52 1005.15 1508.71 1006.14C1509.48 999.66 1511.59 993.411 1517.87 990.14C1521.14 988.437 1524.04 993.385 1520.76 995.09C1514.54 998.333 1514.24 1005.72 1514.03 1011.93ZM1556.89 1007.61C1556.19 1006.64 1547.08 1011.08 1544.47 1010.14C1542.43 1009.4 1540.89 1008.46 1539.61 1007.08C1533.52 1010.38 1526.6 1012.17 1521.24 1006.34C1518.74 1003.62 1522.79 999.56 1525.29 1002.29C1529.56 1006.93 1534.87 1003.34 1538.93 1000.85C1540.24 1000.05 1542.1 1000.54 1542.85 1001.88C1545.81 1007.16 1552.98 1001.19 1557.16 1001.5C1559.38 1001.67 1560.63 1003.06 1561.84 1004.72C1564.03 1007.71 1559.05 1010.56 1556.89 1007.61ZM1567.14 980.235C1566.59 980.751 1565.85 981.067 1565.1 981.067C1564.35 981.067 1563.61 980.751 1563.06 980.235C1562.52 979.691 1562.23 978.974 1562.23 978.2C1562.23 977.423 1562.55 976.706 1563.06 976.165C1564.15 975.104 1566.05 975.104 1567.14 976.165C1567.65 976.706 1567.97 977.452 1567.97 978.2C1567.97 978.974 1567.68 979.691 1567.14 980.235ZM1581.47 980.207C1580.92 980.751 1580.18 981.067 1579.43 981.067C1578.69 981.067 1577.94 980.751 1577.4 980.235C1576.85 979.691 1576.57 978.974 1576.57 978.2C1576.57 977.423 1576.88 976.706 1577.4 976.165C1578.49 975.104 1580.38 975.104 1581.47 976.165C1581.98 976.706 1582.3 977.452 1582.3 978.2C1582.3 978.945 1582.01 979.662 1581.47 980.207ZM1579.43 966.733H1559.37C1557.78 966.733 1556.5 965.452 1556.5 963.867C1556.5 962.281 1557.78 961 1559.37 961H1579.43C1581.02 961 1582.3 962.281 1582.3 963.867C1582.3 965.452 1581.02 966.733 1579.43 966.733ZM1556.5 920.867V880.733L1596.63 920.867H1556.5Z" fill="black"/>
</g>
</g>
</g>
</svg>
