<svg class="welcome" width="512" height="785" viewBox="0 0 512 785" fill="none" xmlns="http://www.w3.org/2000/svg">
<g>
<g id="left">
<g id="left-stake">
<path id="Vector" d="M147.045 97.646H78.746C67.969 97.646 59.232 88.909 59.232 78.132V54.324C59.232 24.734 83.306 0.660004 112.896 0.660004C142.486 0.660004 166.56 24.734 166.56 54.324V78.131C166.56 88.909 157.822 97.646 147.045 97.646Z" fill="#C90000"/>
<path id="Vector_2" d="M147.364 785H78.6364C67.7918 785 59 758.237 59 725.225V355.775C59 322.763 67.7918 296 78.6364 296H147.364C158.208 296 167 322.763 167 355.775V725.225C167.001 758.24 158.208 785 147.364 785Z" fill="#C90000"/>
</g>
<path id="left-sign" d="M256.01 335H24.9898C11.2104 335 0 314.582 0 289.485V104.515C0 79.4177 11.2104 59 24.9898 59H256.01C269.79 59 281 79.4177 281 104.515V289.485C281 314.582 269.789 335 256.01 335Z" fill="white"/>
<g id="left-letters">
<path id="Vector_3" d="M116.532 218.625C114.496 224.56 100.973 224.116 99.717 218.625L95.432 199.091L91.145 218.625C89.871 224.194 76.17 224.479 74.332 218.625L57.93 168.349C56.232 163.268 68.766 159.507 70.211 164.558L82.739 206.84L89.25 178.982C90.248 174.489 100.616 174.492 101.613 178.982L108.124 206.84L120.652 164.558C122.091 159.518 134.612 163.248 132.933 168.349L116.532 218.625Z" fill="#808285"/>
<path id="Vector_4" d="M157.254 187.305H169.617C174.7 187.305 174.857 197.196 169.617 197.196H157.254V211.207H179.343C184.439 211.207 184.598 222.416 179.343 222.416H150.002C147.2 222.416 144.396 221.097 144.396 218.46V166.123C144.396 163.486 147.198 162.167 150.002 162.167H179.343C184.601 162.167 184.436 173.376 179.343 173.376H157.254V187.305Z" fill="#808285"/>
<path id="Vector_5" d="M201.022 222.416C198.22 222.416 195.416 221.097 195.416 218.46V166.04C195.416 163.32 198.631 162.167 201.844 162.167C205.06 162.167 208.273 163.321 208.273 166.04V211.206H227.064C232.01 211.206 232.01 222.415 227.064 222.415H201.022V222.416Z" fill="#808285"/>
</g>
</g>
<g id="right">
<g id="right-stake">
<path id="Vector_6" d="M433.253 97.646H364.954C354.177 97.646 345.44 88.909 345.44 78.132V54.324C345.44 24.734 369.514 0.660004 399.104 0.660004C428.694 0.660004 452.768 24.734 452.768 54.324V78.131C452.767 88.909 444.031 97.646 433.253 97.646Z" fill="#FF5959"/>
<path id="Vector_7" d="M433.364 785H364.636C353.792 785 345 758.237 345 725.225V355.775C345 322.763 353.792 296 364.636 296H433.364C444.208 296 453 322.763 453 355.775V725.225C453 758.24 444.209 785 433.364 785Z" fill="#FF5959"/>
</g>
<path id="right-sign" d="M466.467 58.617H255.999V334.729H466.465C491.572 334.729 511.998 314.303 511.998 289.196V104.15C512 79.043 491.573 58.617 466.467 58.617Z" fill="#D7D7D7"/>
<g id="right-letters">
<path id="Vector_8" d="M261.275 173.376C256.577 173.376 253.857 176.013 253.857 181.619V203.461C253.857 209.065 256.577 211.702 261.357 211.702C267.95 211.702 268.364 206.674 268.61 203.461C268.857 200.412 271.661 199.587 274.957 199.587C279.408 199.587 281.468 200.741 281.468 205.687C281.468 227.462 241 231.185 241 203.461V181.619C241 153.836 281.468 157.963 281.468 178.57C281.468 183.515 279.407 184.669 275.04 184.669C271.578 184.669 268.775 183.762 268.611 180.795C268.526 178.651 268.28 173.376 261.275 173.376Z" fill="black"/>
<path id="Vector_9" d="M293.917 203.46V181.618C293.917 167.442 302.736 162.166 314.112 162.166C325.485 162.166 334.387 167.441 334.387 181.618V203.46C334.387 217.636 325.485 222.912 314.112 222.912C302.736 222.911 293.917 217.637 293.917 203.46ZM321.526 181.619C321.526 175.931 318.725 173.376 314.109 173.376C309.493 173.376 306.773 175.931 306.773 181.619V203.461C306.773 209.147 309.493 211.702 314.109 211.702C318.725 211.702 321.526 209.147 321.526 203.461V181.619Z" fill="black"/>
<path id="Vector_10" d="M378.236 201.071C376.395 204.187 371.643 204.391 369.913 201.071L362.084 186.729V218.462C362.084 223.737 349.225 223.737 349.225 218.462V168.597C349.225 163.899 352.44 162.169 355.654 162.169C360.268 162.169 362.247 162.663 365.626 168.597L374.116 183.433L382.605 168.597C385.985 162.662 387.961 162.169 392.578 162.169C395.873 162.169 399.006 163.899 399.006 168.597V218.462C399.006 223.737 386.147 223.737 386.147 218.462V187.554L378.236 201.071Z" fill="black"/>
<path id="Vector_11" d="M427.363 187.305H439.726C444.809 187.305 444.966 197.196 439.726 197.196H427.363V211.207H449.452C454.548 211.207 454.706 222.416 449.452 222.416H420.111C417.309 222.416 414.505 221.097 414.505 218.46V166.123C414.505 163.486 417.307 162.167 420.111 162.167H449.452C454.708 162.167 454.546 173.376 449.452 173.376H427.363V187.305Z" fill="black"/>
<path id="Vector_12" d="M274.954 199.589C271.663 199.589 268.853 200.409 268.605 203.466C268.358 206.679 267.955 211.701 261.359 211.701C259.082 211.701 257.274 211.103 255.999 209.854V222.668C267.525 225.036 281.471 218.479 281.471 205.691C281.472 200.745 279.403 199.589 274.954 199.589ZM255.999 162.433V175.195C257.248 173.971 259.03 173.374 261.268 173.374C268.28 173.374 268.527 178.656 268.605 180.789C268.774 183.755 271.571 184.666 275.032 184.666C279.403 184.666 281.472 183.508 281.472 178.565C281.472 166.465 267.513 160.052 255.999 162.433Z" fill="black"/>
<path id="Vector_13" d="M293.917 203.46V181.618C293.917 167.442 302.736 162.166 314.112 162.166C325.485 162.166 334.387 167.441 334.387 181.618V203.46C334.387 217.636 325.485 222.912 314.112 222.912C302.736 222.911 293.917 217.637 293.917 203.46ZM321.526 181.619C321.526 175.931 318.725 173.376 314.109 173.376C309.493 173.376 306.773 175.931 306.773 181.619V203.461C306.773 209.147 309.493 211.702 314.109 211.702C318.725 211.702 321.526 209.147 321.526 203.461V181.619Z" fill="black"/>
<path id="Vector_14" d="M378.236 201.071C376.395 204.187 371.643 204.391 369.913 201.071L362.084 186.729V218.462C362.084 223.737 349.225 223.737 349.225 218.462V168.597C349.225 163.899 352.44 162.169 355.654 162.169C360.268 162.169 362.247 162.663 365.626 168.597L374.116 183.433L382.605 168.597C385.985 162.662 387.961 162.169 392.578 162.169C395.873 162.169 399.006 163.899 399.006 168.597V218.462C399.006 223.737 386.147 223.737 386.147 218.462V187.554L378.236 201.071Z" fill="black"/>
<path id="Vector_15" d="M427.363 187.305H439.726C444.809 187.305 444.966 197.196 439.726 197.196H427.363V211.207H449.452C454.548 211.207 454.706 222.416 449.452 222.416H420.111C417.309 222.416 414.505 221.097 414.505 218.46V166.123C414.505 163.486 417.307 162.167 420.111 162.167H449.452C454.708 162.167 454.546 173.376 449.452 173.376H427.363V187.305Z" fill="black"/>
</g>
</g>
</g>
</svg>
